Coordinates
version=1
nRows=11
nColumns=42
inDegrees=yes

Units are S.I. units (second, meters, Newtons, ...)
If the header above contains a line with 'inDegrees', this indicates whether rotational values are in degrees (yes) or radians (no).

endheader
time	pelvis_tilt	pelvis_list	pelvis_rotation	pelvis_tx	pelvis_ty	pelvis_tz	hip_flexion_r	hip_adduction_r	hip_rotation_r	knee_angle_r	knee_adduction_r	knee_angle_r_beta	ankle_angle_r	subtalar_angle_r	mtp_angle_r	hip_flexion_l	hip_adduction_l	hip_rotation_l	knee_angle_l	knee_adduction_l	knee_angle_l_beta	ankle_angle_l	subtalar_angle_l	mtp_angle_l	lumbar_extension	lumbar_bending	lumbar_rotation	arm_flex_r	arm_add_r	arm_rot_r	elbow_flex_r	pro_sup_r	wrist_flex_r	wrist_dev_r	arm_flex_l	arm_add_l	arm_rot_l	elbow_flex_l	pro_sup_l	wrist_flex_l	wrist_dev_l
      0.00000000	     13.67263511	     -1.28091830	      3.28828406	     -1.13359623	      0.85296600	     -0.26845839	     10.94358403	      1.43036638	     -7.92528194	     16.71159439	      1.69373979	      0.29167235	     12.36567971	     -9.45420766	     -9.44749220	    -26.47577135	     -3.68521446	    -11.71239344	      1.82072355	      9.03996152	      0.03177762	     22.89972120	      7.41609597	     -9.44749220	    -26.54928799	      1.86562092	      2.57348155	    -13.59906137	     -5.69793805	    -11.18529935	     29.58461559	     90.00000001	      0.00000000	      0.00000000	     29.17439354	     -8.91295085	      2.27530596	     42.21726942	     90.00000001	      0.00000000	      0.00000000
      0.01000000	     13.59683996	     -1.02141978	      3.49686198	     -1.12326881	      0.85102526	     -0.26838677	     10.98756589	      1.08673251	     -8.55465374	     14.11508390	      1.78044011	      0.24635469	     12.29170288	     -7.72666893	     -9.38843420	    -27.11479316	     -3.45124678	    -11.45858007	      1.90726118	      8.78217225	      0.03328799	     23.26409013	      7.55702350	     -9.38843420	    -26.44841333	      1.70832572	      2.38278136	    -14.17740506	     -5.53758287	    -11.25295983	     29.39034069	     90.00000001	      0.00000000	      0.00000000	     29.73284950	     -8.94215652	      2.60281024	     43.16993753	     90.00000001	      0.00000000	      0.00000000
      0.02000000	     13.47409222	     -0.72010858	      3.72118871	     -1.11291710	      0.84912160	     -0.26834982	     11.10275748	      0.65501581	     -9.35459451	     11.89840573	      1.86004312	      0.20766636	     12.14567464	     -5.90569244	     -9.33792235	    -27.64332648	     -3.17055365	    -11.13888110	      2.12264783	      8.45841396	      0.03704719	     23.60775099	      7.73681583	     -9.33792235	    -26.31171481	      1.52308331	      2.15523247	    -14.68038349	     -5.37381230	    -11.39823914	     29.22511186	     90.00000001	      0.00000000	      0.00000000	     30.20294323	     -9.00092467	      3.04203170	     44.07674727	     90.00000001	      0.00000000	      0.00000000
      0.03000000	     13.36693260	     -0.50522838	      3.98353734	     -1.10245051	      0.84729799	     -0.26814440	     11.23276125	      0.32373464	    -10.34816768	     10.12976526	      1.88783252	      0.17679776	     12.23878993	     -3.88169278	     -9.27802877	    -28.19102822	     -3.04794349	    -10.73812429	      2.35234307	      8.17961877	      0.04105613	     23.80148658	      7.84420586	     -9.27802877	    -26.18423679	      1.43338529	      1.94274311	    -15.08197262	     -5.18270587	    -11.67036852	     29.02023897	     90.00000001	      0.00000000	      0.00000000	     30.58584619	     -9.12668679	      3.70832333	     45.01392186	     90.00000001	      0.00000000	      0.00000000
      0.04000000	     13.16843288	     -0.18683160	      4.18463903	     -1.09202474	      0.84550702	     -0.26801456	     11.53023379	     -0.18931759	    -11.31433309	      8.93624705	      1.99869102	      0.15596693	     12.12532556	     -2.42696259	     -9.23182303	    -28.55725650	     -2.74804697	    -10.41634332	      2.76690695	      7.78129780	      0.04829164	     24.00018349	      8.01987725	     -9.23182303	    -25.98219745	      1.24358977	      1.74884482	    -15.42882388	     -5.04965014	    -11.87828238	     28.85008396	     90.00000001	      0.00000000	      0.00000000	     30.93912531	     -9.17773397	      4.12580908	     45.75895608	     90.00000001	      0.00000000	      0.00000000
      0.05000000	     12.97991771	      0.08358836	      4.50741879	     -1.08143972	      0.84390365	     -0.26785795	     11.75991284	     -0.66012927	    -12.18757493	      8.10430394	      2.10748106	      0.14144679	     12.03437648	     -1.15737639	     -9.18856431	    -28.85658232	     -2.58740118	    -10.18604300	      3.34864726	      7.37663601	      0.05844492	     24.20938799	      8.36990741	     -9.18856431	    -25.77254593	      1.13501047	      1.43064232	    -15.66519876	     -4.86470878	    -12.12060088	     28.63518314	     90.00000001	      0.00000000	      0.00000000	     31.15115618	     -9.29242384	      4.63761881	     46.49717012	     90.00000001	      0.00000000	      0.00000000
      0.06000000	     12.65323997	      0.16176459	      4.47473523	     -1.07074166	      0.84221019	     -0.26712875	     12.32227215	     -0.81314151	    -12.39383565	      8.00269849	      2.09658149	      0.13967344	     11.98566679	     -1.07377990	     -9.17950634	    -29.10461497	     -2.56203902	    -10.07750367	      3.83326908	      7.23090029	      0.06690317	     24.17655246	      8.39904476	     -9.17950634	    -25.38979008	      1.11636290	      1.46557625	    -15.91807495	     -4.82807175	    -12.13880040	     28.56887829	     90.00000001	      0.00000000	      0.00000000	     31.33644817	     -9.27197880	      4.67030544	     46.72568531	     90.00000001	      0.00000000	      0.00000000
      0.07000000	     12.51074949	      0.35364137	      4.85981664	     -1.05989417	      0.84112534	     -0.26691115	     12.39717304	     -1.21246297	    -13.47509841	      7.83159142	      2.14261686	      0.13668706	     11.74534609	     -0.74538791	     -9.15310535	    -29.24590506	     -2.50661238	     -9.98528313	      4.86376500	      6.65713125	      0.08488871	     24.28220191	      8.64408875	     -9.15310535	    -25.22684515	      1.12202301	      1.24671806	    -15.99208397	     -4.66540201	    -12.37752139	     28.24009450	     90.00000001	      0.00000000	      0.00000000	     31.32958341	     -9.28424945	      5.26425777	     47.52996031	     90.00000001	      0.00000000	      0.00000000
      0.08000000	     12.17385529	      0.39329356	      4.95309995	     -1.04867440	      0.83987929	     -0.26603683	     12.71401352	     -1.30741983	    -13.62154120	      8.07267799	      2.09146385	      0.14089481	     11.66156171	     -0.73574109	     -9.14174162	    -29.34551810	     -2.61590937	     -9.78300784	      5.63505613	      6.47013507	      0.09835028	     24.22004265	      8.75589971	     -9.14174162	    -24.77581429	      1.16032105	      1.25132157	    -16.14399486	     -4.61744580	    -12.44682737	     28.13480963	     90.00000001	      0.00000000	      0.00000000	     31.22251206	     -9.26548571	      5.40906565	     47.73498587	     90.00000001	      0.00000000	      0.00000000
      0.09000000	     12.18597145	      0.34916583	      5.34740541	     -1.03753993	      0.83933086	     -0.26524640	     12.80740316	     -1.40770875	    -15.12605486	      9.15226856	      1.95095409	      0.15973722	     11.36812525	     -1.44185100	     -9.10800633	    -29.42843868	     -3.05317216	    -10.24703741	      7.21092512	      6.19617188	      0.12585439	     24.17396425	      9.10039186	     -9.10800633	    -24.75632827	      1.39871344	      0.99952310	    -15.96568546	     -4.50334403	    -12.85917879	     27.63653730	     90.00000001	      0.00000000	      0.00000000	     31.07660129	     -9.53328480	      6.06787356	     48.38550902	     90.00000001	      0.00000000	      0.00000000
      0.10000000	     12.24081067	     -0.00070773	      5.60284212	     -1.02572352	      0.83897938	     -0.26400299	     12.74372406	     -1.05914354	    -16.58340676	     10.26462375	      1.68210175	      0.17915148	     11.32480812	     -1.22405546	     -8.96417335	    -29.39237931	     -3.95520219	    -12.27828871	      9.30606306	      6.08271513	      0.16242144	     24.99030315	     12.23501594	     -8.96417335	    -24.66136763	      1.91494545	      1.09608909	    -15.76116121	     -4.20764091	    -14.36850696	     27.31784871	     90.00000001	      0.00000000	      0.00000000	     30.78096740	     -9.61287974	      6.81567643	     48.63968465	     90.00000001	      0.00000000	      0.00000000
